<svg width="16" height="15" viewBox="0 0 16 15" fill="none"
    xmlns="http://www.w3.org/2000/svg">
    <path d="M16 8.66668C16.0024 9.71569 15.7969 10.7548 15.3955 11.724C14.9941 12.6931 14.4047 13.5732 13.6613 14.3133C13.3021 14.6748 12.8198 14.8875 12.3107 14.909C11.8016 14.9305 11.3031 14.7592 10.9147 14.4293L10.2307 13.838C10.1644 13.7808 10.11 13.711 10.0707 13.6327C10.0314 13.5545 10.0079 13.4692 10.0015 13.3819C9.98864 13.2055 10.0464 13.0312 10.162 12.8973C10.2193 12.8311 10.289 12.7767 10.3673 12.7374C10.4455 12.6981 10.5308 12.6746 10.6181 12.6682C10.7945 12.6553 10.9688 12.713 11.1027 12.8287L11.7873 13.4207C11.9192 13.5332 12.0892 13.5907 12.2623 13.5814C12.4354 13.5721 12.5983 13.4966 12.7173 13.3707C13.353 12.7271 13.8518 11.9615 14.1834 11.1199C14.515 10.2783 14.6727 9.37824 14.6469 8.47403C14.6211 7.56982 14.4124 6.68022 14.0333 5.8589C13.6542 5.03759 13.1127 4.3016 12.4413 3.69535C11.7407 3.06312 10.9126 2.58851 10.0129 2.30353C9.11321 2.01855 8.16288 1.92983 7.226 2.04335C5.97918 2.18783 4.79856 2.68163 3.82015 3.46786C2.84175 4.25409 2.10539 5.30075 1.69591 6.48724C1.28644 7.67372 1.22051 8.95176 1.50572 10.1741C1.79094 11.3964 2.41569 12.5133 3.308 13.396C3.42795 13.5133 3.58769 13.581 3.75537 13.5857C3.92305 13.5904 4.08634 13.5317 4.21266 13.4213L4.89733 12.8287C5.03118 12.713 5.20548 12.6553 5.38189 12.6682C5.5583 12.6811 5.72236 12.7635 5.838 12.8973C5.95363 13.0312 6.01136 13.2055 5.99848 13.3819C5.98561 13.5583 5.90318 13.7224 5.76933 13.838L5.08533 14.43C4.70397 14.7579 4.2136 14.9309 3.71094 14.915C3.20829 14.899 2.72985 14.6953 2.37 14.344C1.434 13.4168 0.741477 12.2729 0.353937 11.0137C-0.033604 9.75448 -0.104164 8.41907 0.148524 7.12606C0.401212 5.83304 0.969326 4.62244 1.8024 3.6018C2.63548 2.58115 3.70774 1.78205 4.92392 1.27546C6.14011 0.768883 7.46259 0.570505 8.77388 0.697952C10.0852 0.825398 11.3447 1.27472 12.4406 2.00602C13.5365 2.73731 14.4348 3.72794 15.0557 4.8899C15.6767 6.05187 16.001 7.3492 16 8.66668ZM11.8047 5.80468C11.9261 5.67894 11.9933 5.51054 11.9918 5.33574C11.9903 5.16095 11.9201 4.99374 11.7965 4.87013C11.6729 4.74653 11.5057 4.67641 11.3309 4.6749C11.1561 4.67338 10.9877 4.74057 10.862 4.86201L8.34533 7.37868C8.06182 7.30268 7.76115 7.32237 7.48996 7.43468C7.21878 7.54699 6.99223 7.74564 6.84546 7.99983C6.69868 8.25402 6.63989 8.54954 6.6782 8.84056C6.7165 9.13157 6.84977 9.40181 7.05732 9.60936C7.26487 9.81691 7.53511 9.95017 7.82612 9.98848C8.11713 10.0268 8.41265 9.96799 8.66684 9.82122C8.92104 9.67445 9.11969 9.4479 9.232 9.17671C9.34431 8.90553 9.36399 8.60486 9.288 8.32135L11.8047 5.80468Z" fill="currentColor"/>
</svg>
